{"title":"Ant-Man {2015} NEW HDTS XVID AC3-MRG","uid":12197631,"size":1592121042,"categoryP":"video","categoryS":"movies","magnet":"?xt=urn:btih:4bd1433476aff5728a24b602f8b97dca037983bf&amp;dn=Ant-Man+%7B2015%7D+NEW+HDTS+XVID+AC3-MRG&amp;tr=udp%3A%2F%2Ftracker.openbittorrent.com%3A80&amp;tr=udp%3A%2F%2Fopen.demonii.com%3A1337&amp;tr=udp%3A%2F%2Ftracker.coppersurfer.tk%3A6969&amp;tr=udp%3A%2F%2Fexodus.desync.com%3A6969","seeders":7,"leechers":3,"uploader":"SaM","files":20,"time":1438774600,"description":"Ant-Man {2015} NEW HDTS XVID AC3-MRG\n\nFixed perspective added few more filters\n\nSource                      : CM8..TY\nFormat                      : AVI\nFormat/Info                 : Audio Video Interleave\nFile size                   : 1.48 GiB\nDuration                    : 1h 48mn\nOverall bit rate            : 1 945 Kbps\nWriting application         : Nandub v1.0rc2\nWriting library             : VirtualDub build 35491/release\n\nVideo\nID                          : 0\nFormat                      : MPEG-4 Visual\nFormat profile              : Advanced Simple@L5\nFormat settings, BVOP       : 2\nFormat settings, QPel       : No\nFormat settings, GMC        : No warppoints\nFormat settings, Matrix     : Default (H.263)\nMuxing mode                 : Packed bitstream\nCodec ID                    : XVID\nCodec ID/Hint               : XviD\nDuration                    : 1h 48mn\nBit rate                    : 1 679 Kbps\nWidth                       : 620 pixels\nHeight                      : 304 pixels\nDisplay aspect ratio        : 2.039\nFrame rate                  : 25.000 fps\nColor space                 : YUV\nChroma subsampling          : 4:2:0\nBit depth                   : 8 bits\nScan type                   : Progressive\nCompression mode            : Lossy\nBits/(Pixel*Frame)          : 0.356\nStream size                 : 1.28 GiB (86%)\nWriting library             : XviD 67\n\nAudio\nID                          : 1\nFormat                      : AC-3\nFormat/Info                 : Audio Coding 3\nMode extension              : CM (complete main)\nFormat settings, Endianness : Big\nCodec ID                    : 2000\nDuration                    : 1h 48mn\nBit rate mode               : Constant\nBit rate                    : 256 Kbps\nChannel(s)                  : 2 channels\nChannel positions           : Front: L R\nSampling rate               : 48.0 KHz\nCompression mode            : Lossy\nDelay relative to video     : 50ms\nStream size                 : 200 MiB (13%)\nAlignment                   : Split accross interleaves\nInterleave, duration        : 40 ms (1.00 video frame)\nInterleave, preload duratio : 500 ms\n &lt;a href=&quot;\nhttp://extraimago.com/image/S1v&quot; rel=&quot;nofollow&quot; target=&quot;_NEW&quot;&gt;\nhttp://extraimago.com/image/S1v&lt;/a&gt; &lt;a href=&quot;\nhttp://extraimago.com/image/S1u&quot; rel=&quot;nofollow&quot; target=&quot;_NEW&quot;&gt;\nhttp://extraimago.com/image/S1u&lt;/a&gt; &lt;a href=&quot;\nhttp://extraimago.com/image/S1V&quot; rel=&quot;nofollow&quot; target=&quot;_NEW&quot;&gt;\nhttp://extraimago.com/image/S1V&lt;/a&gt; &lt;a href=&quot;\nhttp://extraimago.com/image/S16&quot; rel=&quot;nofollow&quot; target=&quot;_NEW&quot;&gt;\nhttp://extraimago.com/image/S16&lt;/a&gt; &lt;a href=&quot;\nhttp://extraimago.com/image/S1x&quot; rel=&quot;nofollow&quot; target=&quot;_NEW&quot;&gt;\nhttp://extraimago.com/image/S1x&lt;/a&gt; &lt;a href=&quot;\nhttp://extraimago.com/image/S1t&quot; rel=&quot;nofollow&quot; target=&quot;_NEW&quot;&gt;\nhttp://extraimago.com/image/S1t&lt;/a&gt; &lt;a href=&quot;\nhttp://extraimago.com/image/S1o&quot; rel=&quot;nofollow&quot; target=&quot;_NEW&quot;&gt;\nhttp://extraimago.com/image/S1o&lt;/a&gt; &lt;a href=&quot;\nhttp://extraimago.com/image/S1k&quot; rel=&quot;nofollow&quot; target=&quot;_NEW&quot;&gt;\nhttp://extraimago.com/image/S1k&lt;/a&gt; &lt;a href=&quot;\nhttp://extraimago.com/image/S1H&quot; rel=&quot;nofollow&quot; target=&quot;_NEW&quot;&gt;\nhttp://extraimago.com/image/S1H&lt;/a&gt; &lt;a href=&quot;\nhttp://extraimago.com/image/S1F&quot; rel=&quot;nofollow&quot; target=&quot;_NEW&quot;&gt;\nhttp://extraimago.com/image/S1F&lt;/a&gt; &lt;a href=&quot;\nhttp://extraimago.com/image/S1D&quot; rel=&quot;nofollow&quot; target=&quot;_NEW&quot;&gt;\nhttp://extraimago.com/image/S1D&lt;/a&gt; &lt;a href=&quot;\nhttp://extraimago.com/image/S15&quot; rel=&quot;nofollow&quot; target=&quot;_NEW&quot;&gt;\nhttp://extraimago.com/image/S15&lt;/a&gt; &lt;a href=&quot;\nhttp://extraimago.com/image/S1g&quot; rel=&quot;nofollow&quot; target=&quot;_NEW&quot;&gt;\nhttp://extraimago.com/image/S1g&lt;/a&gt; &lt;a href=&quot;\nhttp://extraimago.com/image/S1X&quot; rel=&quot;nofollow&quot; target=&quot;_NEW&quot;&gt;\nhttp://extraimago.com/image/S1X&lt;/a&gt; &lt;a href=&quot;\nhttp://extraimago.com/image/S1P&quot; rel=&quot;nofollow&quot; target=&quot;_NEW&quot;&gt;\nhttp://extraimago.com/image/S1P&lt;/a&gt; &lt;a href=&quot;\nhttp://extraimago.com/image/S1G&quot; rel=&quot;nofollow&quot; target=&quot;_NEW&quot;&gt;\nhttp://extraimago.com/image/S1G&lt;/a&gt;","torrent":{"xt":"urn:btih:4bd1433476aff5728a24b602f8b97dca037983bf","amp;dn":"Ant-Man+%7B2015%7D+NEW+HDTS+XVID+AC3-MRG","amp;tr":["udp%3A%2F%2Ftracker.openbittorrent.com%3A80","udp%3A%2F%2Fopen.demonii.com%3A1337","udp%3A%2F%2Ftracker.coppersurfer.tk%3A6969","udp%3A%2F%2Fexodus.desync.com%3A6969"],"infoHash":"4bd1433476aff5728a24b602f8b97dca037983bf","infoHashBuffer":{"type":"Buffer","data":[75,209,67,52,118,175,245,114,138,36,182,2,248,185,125,202,3,121,131,191]},"announce":[],"urlList":[]}}